<?xml version="1.0" standalone="no"?>
<!DOCTYPE svg PUBLIC "-//W3C//DTD SVG 20010904//EN"
 "http://www.w3.org/TR/2001/REC-SVG-20010904/DTD/svg10.dtd">
<svg version="1.0" xmlns="http://www.w3.org/2000/svg"
 width="512.000000pt" height="512.000000pt" viewBox="0 0 512.000000 512.000000"
 preserveAspectRatio="xMidYMid meet">
<metadata>
Created by potrace 1.14, written by Peter Selinger 2001-2017
</metadata>
<g transform="translate(0.000000,512.000000) scale(0.100000,-0.100000)"
fill="#000000" stroke="none">
<path d="M1165 5110 c-27 -4 -66 -10 -85 -13 -48 -8 -209 -55 -245 -71 -16 -8
-46 -21 -65 -29 -51 -20 -185 -103 -252 -154 -83 -63 -188 -171 -258 -266
-104 -138 -213 -386 -236 -537 -3 -19 -10 -55 -14 -80 -5 -25 -9 -655 -9
-1400 0 -1268 1 -1361 18 -1455 89 -487 427 -881 887 -1034 210 -70 91 -65
1619 -67 1114 -2 1396 1 1465 11 270 43 544 181 732 369 198 198 326 443 377
721 20 107 20 145 18 1480 -1 754 -6 1381 -10 1395 -4 14 -12 52 -18 84 -15
82 -65 228 -106 311 -183 365 -497 613 -901 713 l-107 26 -1380 2 c-759 1
-1402 -2 -1430 -6z"/>
</g>
</svg>
